# xmcd
#
# Track frame offsets:
#	150
#	33141
#	45823
#	78783
#	92044
#	117642
#	138468
#	161505
#	181269
#	220593
#	244073
#	264261
#
# Disc length: 3661 seconds
# Revision: 1
# Processed by: cddbd v1.5.2PL0 Copyright (c) Steve Scherf et al.
# Submitted via: dBpowerAMP V12.0
#
DISCID=8e0e4b0c
DTITLE=Albert King - I'll Play the Blues for You [Remastered]
DYEAR=1972
DGENRE=Blues
TTITLE0=I'll Play the Blues for You, Pts. 1 and 2
TTITLE1=Little Brother (Make a Way)
TTITLE2=Breaking Up Somebody's Home
TTITLE3=High Cost of Loving
TTITLE4=I'll Be Doggone
TTITLE5=Answer to the Laundromat Blues
TTITLE6=Don't Burn Down the Bridge ('Cause You Might Wanna Come Back Across)
TTITLE7=Angel of Mercy
TTITLE8=I'll Play the Blues for You [Alternate Version]
TTITLE9=Don't Burn Down the Bridge ('Cause You Might Wanna Come Back Across) [A
TTITLE10=I Need a Love
TTITLE11=Albert's Stomp
EXTD=
EXTT0=
EXTT1=
EXTT2=
EXTT3=
EXTT4=
EXTT5=
EXTT6=
EXTT7=
EXTT8=
EXTT9=
EXTT10=
EXTT11=
PLAYORDER=
